<svg xmlns="http://www.w3.org/2000/svg" width="830" height="260" viewBox="0 0 830 260" role="img" aria-label="Skyline: the contribution year as a 3D bar city, one tower per active day, 1,813 contributions total.">
<style><![CDATA[
text{font-family:ui-monospace,'SF Mono',Menlo,Consolas,'Liberation Mono',monospace;}
.kt0{fill:#FFB300;fill-opacity:0.5}
.kl0{fill:#FFB300;fill-opacity:0.24}
.kr0{fill:#FFB300;fill-opacity:0.11}
.kt1{fill:#FFB300;fill-opacity:0.66}
.kl1{fill:#FFB300;fill-opacity:0.317}
.kr1{fill:#FFB300;fill-opacity:0.145}
.kt2{fill:#FFB300;fill-opacity:0.83}
.kl2{fill:#FFB300;fill-opacity:0.398}
.kr2{fill:#FFB300;fill-opacity:0.183}
.kt3{fill:#FFB300;fill-opacity:1}
.kl3{fill:#FFB300;fill-opacity:0.48}
.kr3{fill:#FFB300;fill-opacity:0.22}
.kt0,.kl0,.kr0,.kt1,.kl1,.kr1,.kt2,.kl2,.kr2,.kt3,.kl3,.kr3{stroke:#05070A;stroke-width:.6;stroke-linejoin:round}
@keyframes skyrise{from{opacity:0;transform:translateY(14px)}to{opacity:1;transform:translateY(0)}}
@keyframes car0_0{from{transform:translate(0,0)}to{transform:translate(817px,-316.083px)}}
@keyframes car0_1{from{transform:translate(0,0)}to{transform:translate(817px,-316.083px)}}
@keyframes car1_0{from{transform:translate(0,0)}to{transform:translate(-817px,316.083px)}}
@keyframes car1_1{from{transform:translate(0,0)}to{transform:translate(-817px,316.083px)}}
@keyframes car2_0{from{transform:translate(0,0)}to{transform:translate(817px,-316.083px)}}
@keyframes car2_1{from{transform:translate(0,0)}to{transform:translate(817px,-316.083px)}}
@keyframes car3_0{from{transform:translate(0,0)}to{transform:translate(-817px,316.083px)}}
@keyframes car3_1{from{transform:translate(0,0)}to{transform:translate(-817px,316.083px)}}
@keyframes beacon{0%,100%{opacity:1}50%{opacity:.15}}
@keyframes flyover{0%{transform:translate(0px,0px) scale(1);animation-timing-function:ease-in-out}13%{transform:translate(345.83px,-280.56px) scale(1.45);animation-timing-function:ease-in-out}17%{transform:translate(345.83px,-280.56px) scale(1.45);animation-timing-function:linear}63%{transform:translate(-652.758px,129.389px) scale(1.45);animation-timing-function:ease-in-out}71%{transform:translate(-652.758px,129.389px) scale(1.45);animation-timing-function:ease-in-out}86%{transform:translate(0px,0px) scale(1);animation-timing-function:ease-in-out}100%{transform:translate(0px,0px) scale(1);animation-timing-function:linear}}
@keyframes bootrev{0%{opacity:0}30%{opacity:.8}55%{opacity:.15}100%{opacity:1}}
@media (prefers-reduced-motion:reduce){*{animation:none !important;}}
]]></style>

<defs>
  <filter id="glow" x="-80%" y="-80%" width="260%" height="260%">
    <feGaussianBlur stdDeviation="1.8" result="b"/>
    <feMerge><feMergeNode in="b"/><feMergeNode in="SourceGraphic"/></feMerge>
  </filter>
  <pattern id="scan" width="3" height="3" patternUnits="userSpaceOnUse">
    <rect width="3" height="1" y="2" fill="#000"/>
  </pattern>
</defs>
<g style="animation:bootrev .5s linear both;animation-delay:7.4s"><rect x="0.75" y="0.75" width="828.5" height="258.5" rx="10" fill="#0E1116" stroke="#262E36" stroke-width="1.5"/><g style="animation:skyrise .8s cubic-bezier(.25,.6,.3,1) both;animation-delay:.15s"><clipPath id="skclip"><rect x="8" y="36" width="814" height="198" rx="6"/></clipPath><g clip-path="url(#skclip)"><g style="animation:flyover 28s infinite"><path d="M45,370L877,48L877,57L45,378Z" fill="#0B0E12" stroke="#232B33" stroke-width=".6"/><path d="M-47,292L45,370L45,378L-47,300Z" fill="#0B0E12" stroke="#232B33" stroke-width=".6"/><path d="M-47,292L785,-30L877,48L45,370Z" fill="#0A0D10" stroke="#2A333C" stroke-width=".8"/><line x1="172" y1="209" x2="260" y2="284" stroke="#1E262E" stroke-width=".7"/><line x1="371" y1="133" x2="459" y2="207" stroke="#1E262E" stroke-width=".7"/><line x1="570" y1="56" x2="658" y2="130" stroke="#1E262E" stroke-width=".7"/><circle cx="-23.277" cy="301.79" r="1.7" fill="#FFB300" opacity="0.9" style="animation:car0_0 11s linear infinite;animation-delay:-1.43s"/><circle cx="-23.277" cy="301.79" r="1.7" fill="#FFB300" opacity="0.55" style="animation:car0_1 11s linear infinite;animation-delay:-6.6s"/><circle cx="817.545" cy="5.964" r="1.7" fill="#FFB300" opacity="0.55" style="animation:car1_0 14s linear infinite;animation-delay:-4.48s"/><circle cx="817.545" cy="5.964" r="1.7" fill="#FFB300" opacity="0.9" style="animation:car1_1 14s linear infinite;animation-delay:-11.06s"/><circle cx="24.366" cy="342.304" r="1.7" fill="#FFB300" opacity="0.9" style="animation:car2_0 9.5s linear infinite;animation-delay:-4.845s"/><circle cx="24.366" cy="342.304" r="1.7" fill="#FFB300" opacity="0.55" style="animation:car2_1 9.5s linear infinite;animation-delay:-9.31s"/><circle cx="863.997" cy="45.465" r="1.7" fill="#FFB300" opacity="0.55" style="animation:car3_0 12.5s linear infinite;animation-delay:-8.75s"/><circle cx="863.997" cy="45.465" r="1.7" fill="#FFB300" opacity="0.9" style="animation:car3_1 12.5s linear infinite;animation-delay:-14.625s"/><path class="kl2" d="M776,-36L786,-40L786,-13L776,-9Z"/><path class="kr2" d="M768,-43L776,-36L776,-9L768,-16Z"/><path class="kt2" d="M768,-43L779,-47L786,-40L776,-36Z"/><path class="kl2" d="M761,-29L771,-33L771,-7L761,-3Z"/><path class="kr2" d="M753,-35L761,-29L761,-3L753,-10Z"/><path class="kt2" d="M753,-35L763,-39L771,-33L761,-29Z"/><path class="kl2" d="M745,-26L755,-30L755,-1L745,3Z"/><path class="kr2" d="M738,-33L745,-26L745,3L738,-4Z"/><path class="kt2" d="M738,-33L748,-37L755,-30L745,-26Z"/><path class="kl3" d="M772,-38L783,-42L783,3L772,7Z"/><path class="kr3" d="M765,-44L772,-38L772,7L765,1Z"/><path class="kt3" d="M765,-44L775,-48L783,-42L772,-38Z"/><path class="kl3" d="M730,-44L740,-47L740,5L730,9Z"/><path class="kr3" d="M722,-50L730,-44L730,9L722,2Z"/><path class="kt3" d="M722,-50L733,-54L740,-47L730,-44Z"/><path class="kl3" d="M757,-33L767,-37L767,9L757,13Z"/><path class="kr3" d="M750,-39L757,-33L757,13L750,6Z"/><path class="kt3" d="M750,-39L760,-43L767,-37L757,-33Z"/><path class="kl2" d="M715,-9L725,-13L725,11L715,14Z"/><path class="kr2" d="M707,-15L715,-9L715,14L707,8Z"/><path class="kt2" d="M707,-15L717,-19L725,-13L715,-9Z"/><path class="kl3" d="M784,-24L794,-28L794,13L784,17Z"/><path class="kr3" d="M777,-31L784,-24L784,17L777,11Z"/><path class="kt3" d="M777,-31L787,-35L794,-28L784,-24Z"/><path class="kl3" d="M742,-23L752,-27L752,15L742,19Z"/><path class="kr3" d="M734,-29L742,-23L742,19L734,12Z"/><path class="kt3" d="M734,-29L745,-33L752,-27L742,-23Z"/><path class="kl0" d="M699,8L709,4L709,16L699,20Z"/><path class="kr0" d="M692,2L699,8L699,20L692,14Z"/><path class="kt0" d="M692,2L702,-2L709,4L699,8Z"/><path class="kl3" d="M769,-17L779,-21L779,19L769,23Z"/><path class="kr3" d="M762,-23L769,-17L769,23L762,17Z"/><path class="kt3" d="M762,-23L772,-27L779,-21L769,-17Z"/><path class="kl3" d="M727,-21L737,-25L737,21L727,25Z"/><path class="kr3" d="M719,-28L727,-21L727,25L719,18Z"/><path class="kt3" d="M719,-28L729,-32L737,-25L727,-21Z"/><path class="kl2" d="M684,-2L694,-6L694,22L684,26Z"/><path class="kr2" d="M677,-8L684,-2L684,26L677,20Z"/><path class="kt2" d="M677,-8L687,-12L694,-6L684,-2Z"/><path class="kl3" d="M796,-29L806,-33L806,23L796,27Z"/><path class="kr3" d="M789,-36L796,-29L796,27L789,21Z"/><path class="kt3" d="M789,-36L799,-40L806,-33L796,-29Z"/><path class="kl2" d="M754,-1L764,-5L764,25L754,29Z"/><path class="kr2" d="M746,-7L754,-1L754,29L746,22Z"/><path class="kt2" d="M746,-7L756,-11L764,-5L754,-1Z"/><path class="kl3" d="M711,-7L721,-11L721,27L711,31Z"/><path class="kr3" d="M704,-14L711,-7L711,31L704,24Z"/><path class="kt3" d="M704,-14L714,-18L721,-11L711,-7Z"/><path class="kl2" d="M669,8L679,4L679,28L669,32Z"/><path class="kr2" d="M661,2L669,8L669,32L661,26Z"/><path class="kt2" d="M661,2L671,-2L679,4L669,8Z"/><path class="kl3" d="M738,1L749,-3L749,31L738,35Z"/><path class="kr3" d="M731,-5L738,1L738,35L731,28Z"/><path class="kt3" d="M731,-5L741,-9L749,-3L738,1Z"/><path class="kl3" d="M696,-3L706,-7L706,33L696,36Z"/><path class="kr3" d="M688,-9L696,-3L696,36L688,30Z"/><path class="kt3" d="M688,-9L699,-13L706,-7L696,-3Z"/><path class="kl3" d="M808,-5L818,-9L818,33L808,37Z"/><path class="kr3" d="M801,-12L808,-5L808,37L801,31Z"/><path class="kt3" d="M801,-12L811,-15L818,-9L808,-5Z"/><path class="kl0" d="M653,26L664,22L664,34L653,38Z"/><path class="kr0" d="M646,20L653,26L653,38L646,32Z"/><path class="kt0" d="M646,20L656,16L664,22L653,26Z"/><path class="kl2" d="M766,19L776,15L776,35L766,39Z"/><path class="kr2" d="M758,13L766,19L766,39L758,33Z"/><path class="kt2" d="M758,13L768,9L776,15L766,19Z"/><path class="kl2" d="M723,11L733,7L733,37L723,41Z"/><path class="kr2" d="M716,5L723,11L723,41L716,34Z"/><path class="kt2" d="M716,5L726,1L733,7L723,11Z"/><path class="kl3" d="M681,9L691,5L691,38L681,42Z"/><path class="kr3" d="M673,3L681,9L681,42L673,36Z"/><path class="kt3" d="M673,3L683,-1L691,5L681,9Z"/><path class="kl3" d="M793,10L803,6L803,39L793,43Z"/><path class="kr3" d="M785,3L793,10L793,43L785,37Z"/><path class="kt3" d="M785,3L796,-1L803,6L793,10Z"/><path class="kl3" d="M638,-11L648,-15L648,40L638,44Z"/><path class="kr3" d="M631,-17L638,-11L638,44L631,38Z"/><path class="kt3" d="M631,-17L641,-21L648,-15L638,-11Z"/><path class="kl3" d="M750,8L760,4L760,41L750,45Z"/><path class="kr3" d="M743,2L750,8L750,45L743,39Z"/><path class="kt3" d="M743,2L753,-2L760,4L750,8Z"/><path class="kl3" d="M708,-9L718,-13L718,43L708,47Z"/><path class="kr3" d="M700,-16L708,-9L708,47L700,40Z"/><path class="kt3" d="M700,-16L710,-20L718,-13L708,-9Z"/><path class="kl2" d="M820,23L830,19L830,43L820,47Z"/><path class="kr2" d="M813,17L820,23L820,47L813,41Z"/><path class="kt2" d="M813,17L823,13L830,19L820,23Z"/><path class="kl0" d="M665,36L675,32L675,44L665,48Z"/><path class="kr0" d="M658,30L665,36L665,48L658,42Z"/><path class="kt0" d="M658,30L668,26L675,32L665,36Z"/><path class="kl2" d="M778,22L788,18L788,45L778,49Z"/><path class="kr2" d="M770,15L778,22L778,49L770,43Z"/><path class="kt2" d="M770,15L780,12L788,18L778,22Z"/><path class="kl0" d="M623,38L633,34L633,46L623,50Z"/><path class="kr0" d="M615,32L623,38L623,50L615,44Z"/><path class="kt0" d="M615,32L625,28L633,34L623,38Z"/><path class="kl3" d="M735,11L745,7L745,47L735,51Z"/><path class="kr3" d="M728,5L735,11L735,51L728,44Z"/><path class="kt3" d="M728,5L738,1L745,7L735,11Z"/><path class="kl2" d="M693,24L703,20L703,49L693,53Z"/><path class="kr2" d="M685,17L693,24L693,53L685,46Z"/><path class="kt2" d="M685,17L695,13L703,20L693,24Z"/><path class="kl1" d="M805,37L815,33L815,49L805,53Z"/><path class="kr1" d="M797,30L805,37L805,53L797,47Z"/><path class="kt1" d="M797,30L807,26L815,33L805,37Z"/><path class="kl3" d="M650,-4L660,-8L660,50L650,54Z"/><path class="kr3" d="M643,-11L650,-4L650,54L643,48Z"/><path class="kt3" d="M643,-11L653,-15L660,-8L650,-4Z"/><path class="kl3" d="M762,11L772,7L772,51L762,55Z"/><path class="kr3" d="M755,4L762,11L762,55L755,49Z"/><path class="kt3" d="M755,4L765,0L772,7L762,11Z"/><path class="kl3" d="M720,-17L730,-20L730,53L720,57Z"/><path class="kr3" d="M712,-23L720,-17L720,57L712,50Z"/><path class="kt3" d="M712,-23L722,-27L730,-20L720,-17Z"/><path class="kl0" d="M677,46L687,43L687,55L677,58Z"/><path class="kr0" d="M670,40L677,46L677,58L670,52Z"/><path class="kt0" d="M670,40L680,36L687,43L677,46Z"/><path class="kl2" d="M789,32L800,28L800,55L789,59Z"/><path class="kr2" d="M782,26L789,32L789,59L782,53Z"/><path class="kt2" d="M782,26L792,22L800,28L789,32Z"/><path class="kl2" d="M635,42L645,38L645,56L635,60Z"/><path class="kr2" d="M627,36L635,42L635,60L627,54Z"/><path class="kt2" d="M627,36L637,32L645,38L635,42Z"/><path class="kl3" d="M747,21L757,17L757,57L747,61Z"/><path class="kr3" d="M740,15L747,21L747,61L740,55Z"/><path class="kt3" d="M740,15L750,11L757,17L747,21Z"/><path class="kl0" d="M592,50L602,46L602,58L592,62Z"/><path class="kr0" d="M585,44L592,50L592,62L585,56Z"/><path class="kt0" d="M585,44L595,40L602,46L592,50Z"/><path class="kl3" d="M704,25L715,21L715,59L704,63Z"/><path class="kr3" d="M697,19L704,25L704,63L697,56Z"/><path class="kt3" d="M697,19L707,15L715,21L704,25Z"/><path class="kl3" d="M662,20L672,16L672,60L662,64Z"/><path class="kr3" d="M654,14L662,20L662,64L654,58Z"/><path class="kt3" d="M654,14L665,10L672,16L662,20Z"/><path class="kl2" d="M774,37L784,33L784,61L774,65Z"/><path class="kr2" d="M767,31L774,37L774,65L767,59Z"/><path class="kt2" d="M767,31L777,27L784,33L774,37Z"/><path class="kl3" d="M732,18L742,14L742,63L732,67Z"/><path class="kr3" d="M724,12L732,18L732,67L724,60Z"/><path class="kt3" d="M724,12L734,8L742,14L732,18Z"/><path class="kl0" d="M577,56L587,52L587,64L577,68Z"/><path class="kr0" d="M569,49L577,56L577,68L569,61Z"/><path class="kt0" d="M569,49L580,46L587,52L577,56Z"/><path class="kl2" d="M689,41L699,37L699,65L689,69Z"/><path class="kr2" d="M682,35L689,41L689,69L682,62Z"/><path class="kt2" d="M682,35L692,31L699,37L689,41Z"/><path class="kl3" d="M801,34L812,30L812,65L801,69Z"/><path class="kr3" d="M794,28L801,34L801,69L794,63Z"/><path class="kt3" d="M794,28L804,24L812,30L801,34Z"/><path class="kl1" d="M647,56L657,52L657,66L647,70Z"/><path class="kr1" d="M639,49L647,56L647,70L639,64Z"/><path class="kt1" d="M639,49L649,45L657,52L647,56Z"/><path class="kl3" d="M759,32L769,28L769,67L759,71Z"/><path class="kr3" d="M751,26L759,32L759,71L751,65Z"/><path class="kt3" d="M751,26L762,22L769,28L759,32Z"/><path class="kl1" d="M604,57L614,54L614,68L604,72Z"/><path class="kr1" d="M597,51L604,57L604,72L597,66Z"/><path class="kt1" d="M597,51L607,47L614,54L604,57Z"/><path class="kl3" d="M716,29L726,25L726,69L716,73Z"/><path class="kr3" d="M709,22L716,29L716,73L709,66Z"/><path class="kt3" d="M709,22L719,19L726,25L716,29Z"/><path class="kl1" d="M562,59L572,55L572,70L562,74Z"/><path class="kr1" d="M554,53L562,59L562,74L554,67Z"/><path class="kt1" d="M554,53L564,49L572,55L562,59Z"/><path class="kl3" d="M674,33L684,29L684,71L674,74Z"/><path class="kr3" d="M666,26L674,33L674,74L666,68Z"/><path class="kt3" d="M666,26L676,22L684,29L674,33Z"/><path class="kl3" d="M786,32L796,28L796,71L786,75Z"/><path class="kr3" d="M779,26L786,32L786,75L779,69Z"/><path class="kt3" d="M779,26L789,22L796,28L786,32Z"/><path class="kl3" d="M744,43L754,39L754,73L744,77Z"/><path class="kr3" d="M736,36L744,43L744,77L736,71Z"/><path class="kt3" d="M736,36L746,33L754,39L744,43Z"/><path class="kl1" d="M589,61L599,57L599,74L589,78Z"/><path class="kr1" d="M581,55L589,61L589,78L581,72Z"/><path class="kt1" d="M581,55L591,51L599,57L589,61Z"/><path class="kl3" d="M701,45L711,41L711,75L701,79Z"/><path class="kr3" d="M694,39L701,45L701,79L694,72Z"/><path class="kt3" d="M694,39L704,35L711,41L701,45Z"/><path class="kl0" d="M546,68L556,64L556,76L546,80Z"/><path class="kr0" d="M539,61L546,68L546,80L539,73Z"/><path class="kt0" d="M539,61L549,57L556,64L546,68Z"/><path class="kl2" d="M659,55L669,51L669,76L659,80Z"/><path class="kr2" d="M651,49L659,55L659,80L651,74Z"/><path class="kt2" d="M651,49L661,45L669,51L659,55Z"/><path class="kl0" d="M771,69L781,65L781,77L771,81Z"/><path class="kr0" d="M763,63L771,69L771,81L763,75Z"/><path class="kt0" d="M763,63L773,59L781,65L771,69Z"/><path class="kl0" d="M728,71L738,67L738,79L728,83Z"/><path class="kr0" d="M721,65L728,71L728,83L721,77Z"/><path class="kt0" d="M721,65L731,61L738,67L728,71Z"/><path class="kl2" d="M686,57L696,53L696,81L686,85Z"/><path class="kr2" d="M678,51L686,57L686,85L678,78Z"/><path class="kt2" d="M678,51L688,47L696,53L686,57Z"/><path class="kl1" d="M531,71L541,67L541,82L531,86Z"/><path class="kr1" d="M524,65L531,71L531,86L524,79Z"/><path class="kt1" d="M524,65L534,61L541,67L531,71Z"/><path class="kl1" d="M601,72L611,68L611,84L601,88Z"/><path class="kr1" d="M593,65L601,72L601,88L593,82Z"/><path class="kt1" d="M593,65L603,61L611,68L601,72Z"/><path class="kl3" d="M713,46L723,42L723,85L713,89Z"/><path class="kr3" d="M706,40L713,46L713,89L706,82Z"/><path class="kt3" d="M706,40L716,36L723,42L713,46Z"/><path class="kl1" d="M558,75L568,71L568,86L558,90Z"/><path class="kr1" d="M551,69L558,75L558,90L551,83Z"/><path class="kt1" d="M551,69L561,65L568,71L558,75Z"/><path class="kl0" d="M670,79L681,75L681,87L670,91Z"/><path class="kr0" d="M663,72L670,79L670,91L663,84Z"/><path class="kt0" d="M663,72L673,68L681,75L670,79Z"/><path class="kl0" d="M628,80L638,76L638,88L628,92Z"/><path class="kr0" d="M620,74L628,80L628,92L620,86Z"/><path class="kt0" d="M620,74L631,70L638,76L628,80Z"/><path class="kl2" d="M740,65L750,61L750,89L740,93Z"/><path class="kr2" d="M733,59L740,65L740,93L733,87Z"/><path class="kt2" d="M733,59L743,55L750,61L740,65Z"/><path class="kl0" d="M585,82L596,78L596,90L585,94Z"/><path class="kr0" d="M578,76L585,82L585,94L578,88Z"/><path class="kt0" d="M578,76L588,72L596,78L585,82Z"/><path class="kl2" d="M698,67L708,63L708,91L698,95Z"/><path class="kr2" d="M690,60L698,67L698,95L690,88Z"/><path class="kt2" d="M690,60L700,56L708,63L698,67Z"/><path class="kl1" d="M543,81L553,77L553,92L543,96Z"/><path class="kr1" d="M535,75L543,81L543,96L535,89Z"/><path class="kt1" d="M535,75L546,71L553,77L543,81Z"/><path class="kl3" d="M725,62L735,58L735,95L725,99Z"/><path class="kr3" d="M717,56L725,62L725,99L717,93Z"/><path class="kt3" d="M717,56L728,52L735,58L725,62Z"/><path class="kl0" d="M570,88L580,84L580,96L570,100Z"/><path class="kr0" d="M563,82L570,88L570,100L563,94Z"/><path class="kt0" d="M563,82L573,78L580,84L570,88Z"/><path class="kl1" d="M682,86L692,82L692,97L682,101Z"/><path class="kr1" d="M675,80L682,86L682,101L675,94Z"/><path class="kt1" d="M675,80L685,76L692,82L682,86Z"/><path class="kl2" d="M485,82L495,78L495,99L485,103Z"/><path class="kr2" d="M478,76L485,82L485,103L478,97Z"/><path class="kt2" d="M478,76L488,72L495,78L485,82Z"/><path class="kl0" d="M597,92L607,88L607,100L597,104Z"/><path class="kr0" d="M590,86L597,92L597,104L590,98Z"/><path class="kt0" d="M590,86L600,82L607,88L597,92Z"/><path class="kl2" d="M667,88L677,84L677,103L667,107Z"/><path class="kr2" d="M660,82L667,88L667,107L660,100Z"/><path class="kt2" d="M660,82L670,78L677,84L667,88Z"/><path class="kl2" d="M512,87L522,83L522,104L512,108Z"/><path class="kr2" d="M505,80L512,87L512,108L505,101Z"/><path class="kt2" d="M505,80L515,76L522,83L512,87Z"/><path class="kl3" d="M694,68L704,64L704,107L694,111Z"/><path class="kr3" d="M687,62L694,68L694,111L687,104Z"/><path class="kt3" d="M687,62L697,58L704,64L694,68Z"/><path class="kl1" d="M539,95L550,91L550,108L539,112Z"/><path class="kr1" d="M532,89L539,95L539,112L532,105Z"/><path class="kt1" d="M532,89L542,85L550,91L539,95Z"/><path class="kl1" d="M497,99L507,95L507,110L497,113Z"/><path class="kr1" d="M490,93L497,99L497,113L490,107Z"/><path class="kt1" d="M490,93L500,89L507,95L497,99Z"/><path class="kl0" d="M679,105L689,101L689,113L679,117Z"/><path class="kr0" d="M671,98L679,105L679,117L671,110Z"/><path class="kt0" d="M671,98L682,94L689,101L679,105Z"/><path class="kl1" d="M636,104L647,100L647,115L636,118Z"/><path class="kr1" d="M629,98L636,104L636,118L629,112Z"/><path class="kt1" d="M629,98L639,94L647,100L636,104Z"/><path class="kl1" d="M482,105L492,101L492,115L482,119Z"/><path class="kr1" d="M474,98L482,105L482,119L474,113Z"/><path class="kt1" d="M474,98L484,95L492,101L482,105Z"/><path class="kl0" d="M594,108L604,104L604,116L594,120Z"/><path class="kr0" d="M586,102L594,108L594,120L586,114Z"/><path class="kt0" d="M586,102L597,98L604,104L594,108Z"/><path class="kl0" d="M551,110L562,106L562,118L551,122Z"/><path class="kr0" d="M544,103L551,110L551,122L544,115Z"/><path class="kt0" d="M544,103L554,100L562,106L551,110Z"/><path class="kl1" d="M509,109L519,105L519,120L509,124Z"/><path class="kr1" d="M501,103L509,109L509,124L501,117Z"/><path class="kt1" d="M501,103L512,99L519,105L509,109Z"/><path class="kl1" d="M466,109L476,105L476,121L466,125Z"/><path class="kr1" d="M459,102L466,109L466,125L459,119Z"/><path class="kt1" d="M459,102L469,98L476,105L466,109Z"/><path class="kl0" d="M424,115L434,111L434,123L424,127Z"/><path class="kr0" d="M416,109L424,115L424,127L416,121Z"/><path class="kt0" d="M416,109L427,105L434,111L424,115Z"/><path class="kl0" d="M606,118L616,114L616,126L606,130Z"/><path class="kr0" d="M598,112L606,118L606,130L598,124Z"/><path class="kt0" d="M598,112L608,108L616,114L606,118Z"/><path class="kl0" d="M563,120L573,116L573,128L563,132Z"/><path class="kr0" d="M556,114L563,120L563,132L556,126Z"/><path class="kt0" d="M556,114L566,110L573,116L563,120Z"/><path class="kl2" d="M521,102L531,98L531,130L521,134Z"/><path class="kr2" d="M513,96L521,102L521,134L513,127Z"/><path class="kt2" d="M513,96L523,92L531,98L521,102Z"/><path class="kl0" d="M436,125L446,121L446,133L436,137Z"/><path class="kr0" d="M428,119L436,125L436,137L428,131Z"/><path class="kt0" d="M428,119L438,115L446,121L436,125Z"/><path class="kl2" d="M393,116L403,112L403,135L393,139Z"/><path class="kr2" d="M386,109L393,116L393,139L386,132Z"/><path class="kt2" d="M386,109L396,105L403,112L393,116Z"/><path class="kl1" d="M575,126L585,122L585,138L575,142Z"/><path class="kr1" d="M568,119L575,126L575,142L568,136Z"/><path class="kt1" d="M568,119L578,115L585,122L575,126Z"/><path class="kl2" d="M533,114L543,110L543,140L533,144Z"/><path class="kr2" d="M525,108L533,114L533,144L525,137Z"/><path class="kt2" d="M525,108L535,104L543,110L533,114Z"/><path class="kl1" d="M448,133L458,129L458,143L448,147Z"/><path class="kr1" d="M440,126L448,133L448,147L440,141Z"/><path class="kt1" d="M440,126L450,122L458,129L448,133Z"/><path class="kl0" d="M363,139L373,135L373,147L363,151Z"/><path class="kr0" d="M355,132L363,139L363,151L355,144Z"/><path class="kt0" d="M355,132L365,128L373,135L363,139Z"/><path class="kl2" d="M545,136L555,132L555,150L545,154Z"/><path class="kr2" d="M537,129L545,136L545,154L537,148Z"/><path class="kt2" d="M537,129L547,125L555,132L545,136Z"/><path class="kl0" d="M390,143L400,139L400,151L390,155Z"/><path class="kr0" d="M382,137L390,143L390,155L382,149Z"/><path class="kt0" d="M382,137L393,133L400,139L390,143Z"/><path class="kl0" d="M529,148L539,144L539,156L529,160Z"/><path class="kr0" d="M522,142L529,148L529,160L522,154Z"/><path class="kt0" d="M522,142L532,138L539,144L529,148Z"/><path class="kl0" d="M375,149L385,145L385,157L375,161Z"/><path class="kr0" d="M367,142L375,149L375,161L367,154Z"/><path class="kt0" d="M367,142L377,139L385,145L375,149Z"/><path class="kl0" d="M557,152L567,148L567,160L557,164Z"/><path class="kr0" d="M549,146L557,152L557,164L549,158Z"/><path class="kt0" d="M549,146L559,142L567,148L557,152Z"/><path class="kl0" d="M359,155L369,151L369,163L359,167Z"/><path class="kr0" d="M352,148L359,155L359,167L352,160Z"/><path class="kt0" d="M352,148L362,144L369,151L359,155Z"/><path class="kl1" d="M456,157L466,153L466,170L456,173Z"/><path class="kr1" d="M449,151L456,157L456,173L449,167Z"/><path class="kt1" d="M449,151L459,147L466,153L456,157Z"/><path class="kl1" d="M240,183L250,180L250,194L240,198Z"/><path class="kr1" d="M233,177L240,183L240,198L233,192Z"/><path class="kt1" d="M233,177L243,173L250,180L240,183Z"/><path class="kl0" d="M310,189L320,185L320,197L310,201Z"/><path class="kr0" d="M302,182L310,189L310,201L302,194Z"/><path class="kt0" d="M302,182L313,178L320,185L310,189Z"/><path class="kl1" d="M422,187L432,183L432,197L422,201Z"/><path class="kr1" d="M415,180L422,187L422,201L415,195Z"/><path class="kt1" d="M415,180L425,176L432,183L422,187Z"/><path class="kl0" d="M267,190L278,186L278,198L267,202Z"/><path class="kr0" d="M260,184L267,190L267,202L260,196Z"/><path class="kt0" d="M260,184L270,180L278,186L267,190Z"/><path class="kl2" d="M449,176L460,172L460,202L449,206Z"/><path class="kr2" d="M442,169L449,176L449,206L442,199Z"/><path class="kt2" d="M442,169L452,165L460,172L449,176Z"/><path class="kl1" d="M295,192L305,188L305,203L295,206Z"/><path class="kr1" d="M287,186L295,192L295,206L287,200Z"/><path class="kt1" d="M287,186L297,182L305,188L295,192Z"/><path class="kl0" d="M279,200L289,196L289,208L279,212Z"/><path class="kr0" d="M272,194L279,200L279,212L272,206Z"/><path class="kt0" d="M272,194L282,190L289,196L279,200Z"/><path class="kl1" d="M237,200L247,196L247,210L237,214Z"/><path class="kr1" d="M229,193L237,200L237,214L229,208Z"/><path class="kt1" d="M229,193L239,189L247,196L237,200Z"/><path class="kl0" d="M307,205L317,201L317,213L307,217Z"/><path class="kr0" d="M299,198L307,205L307,217L299,210Z"/><path class="kt0" d="M299,198L309,194L317,201L307,205Z"/><path class="kl2" d="M264,199L274,195L274,214L264,218Z"/><path class="kr2" d="M257,192L264,199L264,218L257,212Z"/><path class="kt2" d="M257,192L267,188L274,195L264,199Z"/><path class="kl0" d="M291,210L301,207L301,219L291,222Z"/><path class="kr0" d="M284,204L291,210L291,222L284,216Z"/><path class="kt0" d="M284,204L294,200L301,207L291,210Z"/><path class="kl1" d="M403,209L414,205L414,219L403,223Z"/><path class="kr1" d="M396,202L403,209L403,223L396,217Z"/><path class="kt1" d="M396,202L406,198L414,205L403,209Z"/><path class="kl2" d="M249,197L259,193L259,220L249,224Z"/><path class="kr2" d="M241,191L249,197L249,224L241,218Z"/><path class="kt2" d="M241,191L251,187L259,193L249,197Z"/><path class="kl2" d="M233,205L244,201L244,226L233,230Z"/><path class="kr2" d="M226,198L233,205L233,230L226,224Z"/><path class="kt2" d="M226,198L236,194L244,201L233,205Z"/><path class="kl2" d="M261,216L271,212L271,230L261,234Z"/><path class="kr2" d="M253,210L261,216L261,234L253,228Z"/><path class="kt2" d="M253,210L263,206L271,212L261,216Z"/><path class="kl2" d="M218,207L228,203L228,232L218,236Z"/><path class="kr2" d="M211,201L218,207L218,236L211,230Z"/><path class="kt2" d="M211,201L221,197L228,203L218,207Z"/><path class="kl1" d="M315,228L325,224L325,239L315,243Z"/><path class="kr1" d="M308,222L315,228L315,243L308,236Z"/><path class="kt1" d="M308,222L318,218L325,224L315,228Z"/><path class="kl0" d="M273,232L283,229L283,241L273,244Z"/><path class="kr0" d="M265,226L273,232L273,244L265,238Z"/><path class="kt0" d="M265,226L275,222L283,229L273,232Z"/><path class="kl0" d="M188,236L198,232L198,244L188,248Z"/><path class="kr0" d="M180,230L188,236L188,248L180,242Z"/><path class="kt0" d="M180,230L190,226L198,232L188,236Z"/><path class="kl1" d="M145,233L155,229L155,246L145,250Z"/><path class="kr1" d="M138,227L145,233L145,250L138,243Z"/><path class="kt1" d="M138,227L148,223L155,229L145,233Z"/><path class="kl1" d="M157,243L167,239L167,256L157,260Z"/><path class="kr1" d="M149,237L157,243L157,260L149,253Z"/><path class="kt1" d="M149,237L160,233L167,239L157,243Z"/><path class="kl0" d="M239,260L249,256L249,268L239,272Z"/><path class="kr0" d="M231,254L239,260L239,272L231,266Z"/><path class="kt0" d="M231,254L241,250L249,256L239,260Z"/><path class="kl0" d="M68,267L79,263L79,275L68,279Z"/><path class="kr0" d="M61,261L68,267L68,279L61,273Z"/><path class="kt0" d="M61,261L71,257L79,263L68,267Z"/><path class="kl0" d="M53,273L63,269L63,281L53,285Z"/><path class="kr0" d="M46,267L53,273L53,285L46,279Z"/><path class="kt0" d="M46,267L56,263L63,269L53,273Z"/><path class="kl1" d="M80,275L90,271L90,285L80,289Z"/><path class="kr1" d="M73,268L80,275L80,289L73,283Z"/><path class="kt1" d="M73,268L83,265L90,271L80,275Z"/><path class="kl0" d="M-20,287L-10,283L-10,295L-20,299Z"/><path class="kr0" d="M-27,280L-20,287L-20,299L-27,292Z"/><path class="kt0" d="M-27,280L-17,276L-10,283L-20,287Z"/><path class="kl2" d="M50,283L60,279L60,297L50,301Z"/><path class="kr2" d="M42,277L50,283L50,301L42,295Z"/><path class="kt2" d="M42,277L52,273L60,279L50,283Z"/><path class="kl1" d="M120,289L130,285L130,300L120,304Z"/><path class="kr1" d="M112,283L120,289L120,304L112,297Z"/><path class="kt1" d="M112,283L122,279L130,285L120,289Z"/><path class="kl0" d="M62,299L72,295L72,307L62,311Z"/><path class="kr0" d="M54,293L62,299L62,311L54,305Z"/><path class="kt0" d="M54,293L64,289L72,295L62,299Z"/><path class="kl0" d="M131,302L142,298L142,310L131,314Z"/><path class="kr0" d="M124,295L131,302L131,314L124,307Z"/><path class="kt0" d="M124,295L134,292L142,298L131,302Z"/><path class="kl1" d="M74,305L84,301L84,318L74,321Z"/><path class="kr1" d="M66,299L74,305L74,321L66,315Z"/><path class="kt1" d="M66,299L76,295L84,301L74,305Z"/><path class="kl1" d="M143,309L153,305L153,320L143,324Z"/><path class="kr1" d="M136,303L143,309L143,324L136,318Z"/><path class="kt1" d="M136,303L146,299L153,305L143,309Z"/><path class="kl0" d="M85,320L96,316L96,328L85,332Z"/><path class="kr0" d="M78,313L85,320L85,332L78,325Z"/><path class="kt0" d="M78,313L88,309L96,316L85,320Z"/><path class="kl0" d="M97,330L108,326L108,338L97,342Z"/><path class="kr0" d="M90,323L97,330L97,342L90,335Z"/><path class="kt0" d="M90,323L100,319L108,326L97,330Z"/><line x1="721" y1="-22" x2="721" y2="42" stroke="#FFB300" stroke-opacity=".6" stroke-width=".8"/><circle cx="721" cy="40" r="1.6" fill="#FFB300"/><rect x="622.6" y="31" width="90.4" height="16" rx="3" fill="#0A0D10" fill-opacity=".92" stroke="#2A333C" stroke-width=".7"/><text x="667.8" y="43" font-size="9" fill="#FFB300" text-anchor="middle">119 in one day</text><circle cx="721.081" cy="-24.025" r="1.5" fill="#FFB300" style="animation:beacon 2.4s ease-in-out infinite"/></g></g></g><text x="18" y="29" font-size="12" letter-spacing="1.6" fill="#FFB300">SKYLINE</text><text x="812" y="29" font-size="10" fill="#46525E" text-anchor="end">the same year, extruded</text><text x="18" y="246" font-size="10" fill="#46525E">1,813 contributions as a city · one tower per day</text><rect x="1" y="1" width="828" height="258" rx="10" fill="url(#scan)" opacity="0.14"/></g>

</svg>