<svg xmlns="http://www.w3.org/2000/svg" width="268" height="170" viewBox="0 0 268 170" role="img" aria-label="Commit clock: a 24 hour dial of 1,113 commits. Peak hour 2 pm, 40 percent after 6 pm.">
<style><![CDATA[
text{font-family:ui-monospace,'SF Mono',Menlo,Consolas,'Liberation Mono',monospace;}
@keyframes cbar{from{transform:scaleY(0)}to{transform:scaleY(1)}}
@media (prefers-reduced-motion:reduce){*{animation:none !important;}}
]]></style>

<defs>
  <filter id="glow" x="-80%" y="-80%" width="260%" height="260%">
    <feGaussianBlur stdDeviation="1.8" result="b"/>
    <feMerge><feMergeNode in="b"/><feMergeNode in="SourceGraphic"/></feMerge>
  </filter>
  <pattern id="scan" width="3" height="3" patternUnits="userSpaceOnUse">
    <rect width="3" height="1" y="2" fill="#000"/>
  </pattern>
</defs>
<rect x="0.75" y="0.75" width="266.5" height="168.5" rx="8" fill="#0A0D10" stroke="#262E36" stroke-width="1.5"/><text x="12" y="19" font-size="11" letter-spacing="1.4" fill="#FFB300">COMMIT CLOCK</text><text x="256" y="19" font-size="9" letter-spacing="0.8" fill="#46525E" text-anchor="end">BY HOUR</text><circle cx="70" cy="96" r="16" fill="none" stroke="#1E262E"/><g transform="translate(70,96) rotate(0)"><line x1="0" y1="-20" x2="0" y2="-30.652" stroke="#FFB300" stroke-opacity="0.53" stroke-width="2.2" style="animation:cbar .6s cubic-bezier(.3,.6,.3,1) both;animation-delay:0s;transform-origin:0px -20px"/></g><g transform="translate(70,96) rotate(15)"><line x1="0" y1="-20" x2="0" y2="-28.548" stroke="#FFB300" stroke-opacity="0.462" stroke-width="2.2" style="animation:cbar .6s cubic-bezier(.3,.6,.3,1) both;animation-delay:0.04s;transform-origin:0px -20px"/></g><g transform="translate(70,96) rotate(30)"><line x1="0" y1="-20" x2="0" y2="-25.104" stroke="#FFB300" stroke-opacity="0.349" stroke-width="2.2" style="animation:cbar .6s cubic-bezier(.3,.6,.3,1) both;animation-delay:0.08s;transform-origin:0px -20px"/></g><g transform="translate(70,96) rotate(45)"><line x1="0" y1="-20" x2="0" y2="-23.383" stroke="#FFB300" stroke-opacity="0.293" stroke-width="2.2" style="animation:cbar .6s cubic-bezier(.3,.6,.3,1) both;animation-delay:0.12s;transform-origin:0px -20px"/></g><g transform="translate(70,96) rotate(60)"><line x1="0" y1="-20" x2="0" y2="-23" stroke="#FFB300" stroke-opacity="0.28" stroke-width="2.2" style="animation:cbar .6s cubic-bezier(.3,.6,.3,1) both;animation-delay:0.16s;transform-origin:0px -20px"/></g><g transform="translate(70,96) rotate(75)"><line x1="0" y1="-20" x2="0" y2="-23" stroke="#FFB300" stroke-opacity="0.28" stroke-width="2.2" style="animation:cbar .6s cubic-bezier(.3,.6,.3,1) both;animation-delay:0.2s;transform-origin:0px -20px"/></g><g transform="translate(70,96) rotate(90)"><line x1="0" y1="-20" x2="0" y2="-23.765" stroke="#FFB300" stroke-opacity="0.305" stroke-width="2.2" style="animation:cbar .6s cubic-bezier(.3,.6,.3,1) both;animation-delay:0.24s;transform-origin:0px -20px"/></g><g transform="translate(70,96) rotate(105)"><line x1="0" y1="-20" x2="0" y2="-23.574" stroke="#FFB300" stroke-opacity="0.299" stroke-width="2.2" style="animation:cbar .6s cubic-bezier(.3,.6,.3,1) both;animation-delay:0.28s;transform-origin:0px -20px"/></g><g transform="translate(70,96) rotate(120)"><line x1="0" y1="-20" x2="0" y2="-23.957" stroke="#FFB300" stroke-opacity="0.311" stroke-width="2.2" style="animation:cbar .6s cubic-bezier(.3,.6,.3,1) both;animation-delay:0.32s;transform-origin:0px -20px"/></g><g transform="translate(70,96) rotate(135)"><line x1="0" y1="-20" x2="0" y2="-26.443" stroke="#FFB300" stroke-opacity="0.393" stroke-width="2.2" style="animation:cbar .6s cubic-bezier(.3,.6,.3,1) both;animation-delay:0.36s;transform-origin:0px -20px"/></g><g transform="translate(70,96) rotate(150)"><line x1="0" y1="-20" x2="0" y2="-34.096" stroke="#FFB300" stroke-opacity="0.643" stroke-width="2.2" style="animation:cbar .6s cubic-bezier(.3,.6,.3,1) both;animation-delay:0.4s;transform-origin:0px -20px"/></g><g transform="translate(70,96) rotate(165)"><line x1="0" y1="-20" x2="0" y2="-33.904" stroke="#FFB300" stroke-opacity="0.637" stroke-width="2.2" style="animation:cbar .6s cubic-bezier(.3,.6,.3,1) both;animation-delay:0.44s;transform-origin:0px -20px"/></g><g transform="translate(70,96) rotate(180)"><line x1="0" y1="-20" x2="0" y2="-32.948" stroke="#FFB300" stroke-opacity="0.606" stroke-width="2.2" style="animation:cbar .6s cubic-bezier(.3,.6,.3,1) both;animation-delay:0.48s;transform-origin:0px -20px"/></g><g transform="translate(70,96) rotate(195)"><line x1="0" y1="-20" x2="0" y2="-38.878" stroke="#FFB300" stroke-opacity="0.8" stroke-width="2.2" style="animation:cbar .6s cubic-bezier(.3,.6,.3,1) both;animation-delay:0.52s;transform-origin:0px -20px"/></g><g transform="translate(70,96) rotate(210)"><line x1="0" y1="-20" x2="0" y2="-45" stroke="#FFB300" stroke-opacity="1" stroke-width="3.2" style="animation:cbar .6s cubic-bezier(.3,.6,.3,1) both;animation-delay:0.56s;transform-origin:0px -20px"/></g><g transform="translate(70,96) rotate(225)"><line x1="0" y1="-20" x2="0" y2="-41.557" stroke="#FFB300" stroke-opacity="0.887" stroke-width="2.2" style="animation:cbar .6s cubic-bezier(.3,.6,.3,1) both;animation-delay:0.6s;transform-origin:0px -20px"/></g><g transform="translate(70,96) rotate(240)"><line x1="0" y1="-20" x2="0" y2="-43.087" stroke="#FFB300" stroke-opacity="0.937" stroke-width="2.2" style="animation:cbar .6s cubic-bezier(.3,.6,.3,1) both;animation-delay:0.64s;transform-origin:0px -20px"/></g><g transform="translate(70,96) rotate(255)"><line x1="0" y1="-20" x2="0" y2="-36.965" stroke="#FFB300" stroke-opacity="0.737" stroke-width="2.2" style="animation:cbar .6s cubic-bezier(.3,.6,.3,1) both;animation-delay:0.68s;transform-origin:0px -20px"/></g><g transform="translate(70,96) rotate(270)"><line x1="0" y1="-20" x2="0" y2="-31.8" stroke="#FFB300" stroke-opacity="0.568" stroke-width="2.2" style="animation:cbar .6s cubic-bezier(.3,.6,.3,1) both;animation-delay:0.72s;transform-origin:0px -20px"/></g><g transform="translate(70,96) rotate(285)"><line x1="0" y1="-20" x2="0" y2="-35.052" stroke="#FFB300" stroke-opacity="0.674" stroke-width="2.2" style="animation:cbar .6s cubic-bezier(.3,.6,.3,1) both;animation-delay:0.76s;transform-origin:0px -20px"/></g><g transform="translate(70,96) rotate(300)"><line x1="0" y1="-20" x2="0" y2="-35.435" stroke="#FFB300" stroke-opacity="0.687" stroke-width="2.2" style="animation:cbar .6s cubic-bezier(.3,.6,.3,1) both;animation-delay:0.8s;transform-origin:0px -20px"/></g><g transform="translate(70,96) rotate(315)"><line x1="0" y1="-20" x2="0" y2="-32.948" stroke="#FFB300" stroke-opacity="0.606" stroke-width="2.2" style="animation:cbar .6s cubic-bezier(.3,.6,.3,1) both;animation-delay:0.84s;transform-origin:0px -20px"/></g><g transform="translate(70,96) rotate(330)"><line x1="0" y1="-20" x2="0" y2="-36.583" stroke="#FFB300" stroke-opacity="0.725" stroke-width="2.2" style="animation:cbar .6s cubic-bezier(.3,.6,.3,1) both;animation-delay:0.88s;transform-origin:0px -20px"/></g><g transform="translate(70,96) rotate(345)"><line x1="0" y1="-20" x2="0" y2="-35.243" stroke="#FFB300" stroke-opacity="0.681" stroke-width="2.2" style="animation:cbar .6s cubic-bezier(.3,.6,.3,1) both;animation-delay:0.92s;transform-origin:0px -20px"/></g><text x="70" y="47" font-size="7" fill="#46525E" text-anchor="middle">00</text><text x="70" y="151" font-size="7" fill="#46525E" text-anchor="middle">12</text><text x="134" y="66" font-size="11" fill="#6C7986">peak: <tspan fill="#FFB300" font-size="14">2 pm</tspan></text><text x="134" y="94" font-size="11" fill="#6C7986"><tspan fill="#FFB300" font-size="14">40%</tspan> after 6 pm</text><text x="134" y="122" font-size="11" fill="#6C7986">quiet: <tspan fill="#FFB300">4 to 9 am</tspan></text><text x="12" y="158" font-size="10" fill="#46525E">1,113 commits, by hour of day</text>
<rect x="1" y="1" width="266" height="168" rx="10" fill="url(#scan)" opacity="0.14"/>
</svg>